<svg width="803" height="803" viewBox="0 0 803 803" fill="none" xmlns="http://www.w3.org/2000/svg">
<circle cx="401.5" cy="401.5" r="401.5" fill="#403F2B"/>
<path d="M402 547C435.948 547 468.505 533.514 492.51 509.51C516.514 485.505 530 452.948 530 419C530 385.052 516.514 352.495 492.51 328.49C468.505 304.486 435.948 291 402 291C368.052 291 335.495 304.486 311.49 328.49C287.486 352.495 274 385.052 274 419C274 452.948 287.486 485.505 311.49 509.51C335.495 533.514 368.052 547 402 547ZM356.3 595C257.8 595 162 622.5 162 721C162 737.4 280.6 791 297 791L367 803H428.5L472.5 797.5L505.5 791C521.9 791 635 742.4 635 726C635 627.5 546.2 595 447.7 595H356.3Z" fill="white"/>
</svg>
